# xmcd
#
# Track frame offsets: 
#        150
#        24946
#        46371
#        70422
#        90077
#        114720
#        128691
#        156483
#        174285
#        196608
#
# Disc length: 2912 seconds
#
# Revision: 0
# Processed by: cddbd v1.5.2PL0 Copyright (c) Steve Scherf et al.
# Submitted via: ExactAudioCopy v1.3
#
DISCID=750b5e0a
DTITLE=Big Willy - All In
DYEAR=2018
DGENRE=Blues
TTITLE0=Somethin' New
TTITLE1=All In
TTITLE2=Spend My Days With You
TTITLE3=So Bad At Being Good
TTITLE4=Drowned
TTITLE5=What I'm Tryin' To Say
TTITLE6=Down To The River
TTITLE7=Well Metered
TTITLE8=Ride A Wild Horse
TTITLE9=Home
EXTD=
EXTT0=
EXTT1=
EXTT2=
EXTT3=
EXTT4=
EXTT5=
EXTT6=
EXTT7=
EXTT8=
EXTT9=
PLAYORDER=
